<?xml version="1.0" encoding="UTF-8"?>
<svg xmlns="http://www.w3.org/2000/svg" xmlns:xlink="http://www.w3.org/1999/xlink" viewBox="0 0 32 32" width="32px" height="32px">
<g id="surface3567458">
<path style=" stroke:none;fill-rule:nonzero;fill:rgb(20.392157%,59.607846%,85.882354%);fill-opacity:1;" d="M 18.5 2 C 10.75 2 6 11.25 6 16 C 6 16 9.25 4 19 4 C 22.625 4 25 6 25 6 C 25 6 24 2 18.5 2 Z M 17.5 7 C 15.566406 7 14 8.566406 14 10.5 C 14 12.433594 15.566406 14 17.5 14 C 19.433594 14 21 12.433594 21 10.5 C 21 8.566406 19.433594 7 17.5 7 Z M 20 16 C 20 16 19 17 15 17 L 15 27.5 C 15 28.882812 16.117188 30 17.5 30 C 18.882812 30 20 28.882812 20 27.5 Z M 20 16 "/>
</g>
</svg>
